<svg xmlns="http://www.w3.org/2000/svg" width="1400" height="880" viewBox="0 0 1400 880">

  <defs>
    <marker id="arrow-blue" markerWidth="8" markerHeight="8" refX="7" refY="4" orient="auto" markerUnits="strokeWidth">
      <path d="M 0 0 L 8 4 L 0 8 z" fill="#5B82C4"/>
    </marker>
    <marker id="arrow-gray" markerWidth="8" markerHeight="8" refX="7" refY="4" orient="auto" markerUnits="strokeWidth">
      <path d="M 0 0 L 8 4 L 0 8 z" fill="#9AA5B1"/>
    </marker>
    <filter id="shadow" x="-20%" y="-20%" width="140%" height="140%">
      <feDropShadow dx="0" dy="5" stdDeviation="8" flood-color="#0F172A" flood-opacity="0.06"/>
    </filter>
    <style>
      .section { font: 700 19px "Pretendard Variable", "Arial Rounded MT Bold", "Trebuchet MS", "Noto Sans KR", sans-serif; fill:#2563EB; }
      .node-title { font: 700 17px "Pretendard Variable", "Arial Rounded MT Bold", "Trebuchet MS", "Noto Sans KR", sans-serif; fill:#20262E; }
      .node-meta { font: 600 13px "Pretendard Variable", "Arial Rounded MT Bold", "Trebuchet MS", "Noto Sans KR", sans-serif; fill:#5F6B79; }
      .tiny { font: 600 11px "Pretendard Variable", "Arial Rounded MT Bold", "Trebuchet MS", "Noto Sans KR", sans-serif; fill:#64748B; }
      .boundary-label { font: 700 12px "Pretendard Variable", "Arial Rounded MT Bold", "Trebuchet MS", "Noto Sans KR", sans-serif; fill:#4F6FA8; }
      .blue-line { stroke:#5B82C4; stroke-width:2.1; fill:none; marker-end:url(#arrow-blue); }
      .gray-line { stroke:#AEB7C1; stroke-width:1.7; fill:none; marker-end:url(#arrow-gray); }
      .dash-line { stroke:#9AA5B1; stroke-width:1.7; fill:none; stroke-dasharray:7 7; marker-end:url(#arrow-gray); }
      .plain-gray { stroke:#AEB7C1; stroke-width:1.7; fill:none; }
    </style>
  </defs>

  <rect width="1400" height="880" fill="#FBFBFA"/>

  <text x="70" y="72" class="section">01 코드 생성 · 실행 검증</text>
  <text x="70" y="455" class="section">02 리뷰 · 피드백 · 외부 평가</text>

  <g filter="url(#shadow)"><rect x="70" y="145" width="180" height="76" rx="38" fill="#FBFBFA" stroke="#CFD7E1" stroke-width="1.5"/></g>
  <text x="160" y="176" text-anchor="middle" class="node-title">자연어 요구사항</text>
  <text x="160" y="198" text-anchor="middle" class="node-meta">prompt</text>

  <g filter="url(#shadow)"><rect x="330" y="135" width="190" height="96" rx="16" fill="#FAFBFC" stroke="#C3CDD8" stroke-width="1.5" stroke-dasharray="7 6"/></g>
  <text x="425" y="172" text-anchor="middle" class="node-title">명세 정형화</text>
  <text x="425" y="196" text-anchor="middle" class="node-meta">Phi-3</text>

  <g filter="url(#shadow)"><rect x="605" y="135" width="180" height="96" rx="16" fill="#FFFFFF" stroke="#D8E0E8" stroke-width="1.5"/></g>
  <text x="695" y="172" text-anchor="middle" class="node-title">코드 생성</text>
  <text x="695" y="196" text-anchor="middle" class="node-meta">LLM</text>

  <g filter="url(#shadow)"><rect x="870" y="135" width="200" height="96" rx="16" fill="#F1F6FF" stroke="#ABC5F2" stroke-width="1.5"/></g>
  <text x="970" y="172" text-anchor="middle" class="node-title">생성 C/C++ 코드</text>
  <text x="970" y="196" text-anchor="middle" class="node-meta">generated code</text>

  <g filter="url(#shadow)"><rect x="1160" y="90" width="185" height="92" rx="16" fill="#FAFBFC" stroke="#C3CDD8" stroke-width="1.5" stroke-dasharray="7 6"/></g>
  <text x="1252" y="126" text-anchor="middle" class="node-title">컴파일 · 실행</text>
  <text x="1252" y="150" text-anchor="middle" class="node-meta">runtime result</text>

  <g filter="url(#shadow)"><rect x="1160" y="245" width="185" height="92" rx="16" fill="#EAF2FF" stroke="#9AB9EE" stroke-width="1.5"/></g>
  <text x="1252" y="281" text-anchor="middle" class="node-title">C++ Sanitizer</text>
  <text x="1252" y="305" text-anchor="middle" class="node-meta">memory · runtime error</text>

  <path d="M250 183 H330" class="blue-line"/>
  <path d="M520 183 H605" class="blue-line"/>
  <path d="M785 183 H870" class="blue-line"/>
  <path d="M1070 183 H1110 V136 H1160" class="gray-line"/>
  <path d="M1070 183 H1110 V291 H1160" class="blue-line"/>

  <line x1="70" y1="405" x2="1330" y2="405" stroke="#E1E5EA" stroke-width="1.2"/>

  <g filter="url(#shadow)"><rect x="310" y="585" width="200" height="96" rx="16" fill="#FFFFFF" stroke="#D8E0E8" stroke-width="1.5"/></g>
  <text x="410" y="622" text-anchor="middle" class="node-title">코드 리뷰</text>
  <text x="410" y="646" text-anchor="middle" class="node-meta">Qwen 계열</text>

  <g filter="url(#shadow)"><rect x="595" y="585" width="200" height="96" rx="16" fill="#EAF2FF" stroke="#9AB9EE" stroke-width="1.5"/></g>
  <text x="695" y="622" text-anchor="middle" class="node-title">수정 피드백</text>
  <text x="695" y="646" text-anchor="middle" class="node-meta">실행 근거 반영</text>

  <g filter="url(#shadow)"><rect x="980" y="585" width="220" height="96" rx="16" fill="#F1F6FF" stroke="#ABC5F2" stroke-width="1.5"/></g>
  <text x="1090" y="622" text-anchor="middle" class="node-title">외부 평가</text>
  <text x="1090" y="646" text-anchor="middle" class="node-meta">DebugBench · CodeJudge</text>

  <path d="M970 231 V535 H375 V585" class="dash-line"/>
  <text x="835" y="526" class="tiny">생성 코드</text>

  <path d="M1252 337 V500 H445 V585" class="blue-line"/>
  <text x="1005" y="490" class="tiny">실행 · Sanitizer 근거</text>

  <path d="M510 633 H595" class="blue-line"/>
  <path d="M795 633 H980" class="gray-line"/>

  <path d="M695 585 V231" class="blue-line"/>
  <text x="712" y="430" class="tiny">재생성</text>
</svg>